<?xml version="1.0" standalone="no"?>
<!DOCTYPE svg PUBLIC "-//W3C//DTD SVG 20010904//EN"
 "http://www.w3.org/TR/2001/REC-SVG-20010904/DTD/svg10.dtd">
<svg version="1.0" xmlns="http://www.w3.org/2000/svg"
 width="260.000000pt" height="260.000000pt" viewBox="0 0 260.000000 260.000000"
 preserveAspectRatio="xMidYMid meet">
<metadata>
Created by potrace 1.14, written by Peter Selinger 2001-2017
</metadata>
<g transform="translate(0.000000,260.000000) scale(0.100000,-0.100000)"
fill="#000000" stroke="none">
<path d="M740 2288 c-19 -4 -75 -10 -124 -12 -90 -5 -106 -12 -106 -47 0 -22
27 -32 51 -19 25 14 38 5 34 -23 -2 -12 -6 -49 -9 -82 -4 -33 -8 -71 -10 -85
-7 -39 -17 -120 -22 -175 -2 -27 -9 -61 -14 -75 -5 -14 -11 -45 -14 -70 -7
-61 -15 -120 -21 -150 -3 -14 -7 -43 -11 -65 -22 -154 -29 -175 -62 -175 -37
0 -67 -22 -59 -43 7 -18 25 -17 137 2 36 7 88 15 115 18 104 12 132 43 39 43
l-57 0 7 58 c4 31 9 84 12 117 2 32 9 75 14 95 5 19 10 55 11 80 0 25 4 53 7
63 8 20 16 11 95 -103 62 -90 79 -111 178 -208 113 -112 174 -155 203 -146 12
4 47 34 80 68 80 83 86 91 86 104 0 21 -39 13 -55 -12 -21 -32 -36 -37 -77
-25 -30 8 -172 132 -173 150 0 4 -18 24 -40 45 -22 22 -57 65 -78 97 -21 31
-42 57 -47 57 -5 0 -15 13 -23 29 -16 33 -13 38 63 91 19 13 38 28 42 34 3 5
64 69 135 140 71 72 136 140 144 152 17 25 50 44 78 44 29 0 36 19 9 28 -22 8
-147 1 -213 -12 -16 -3 -44 -8 -62 -11 -34 -6 -46 -24 -33 -46 8 -11 15 -12
41 -2 18 7 34 11 37 9 9 -10 -36 -76 -107 -154 -18 -20 -51 -62 -74 -92 -22
-30 -48 -59 -56 -64 -9 -5 -43 -36 -77 -68 -33 -32 -63 -58 -66 -58 -3 0 -2
17 2 38 5 20 11 60 14 87 3 28 10 77 16 110 5 33 14 93 19 134 11 80 16 90 52
96 48 7 68 17 62 31 -5 15 -33 15 -93 2z"/>
<path d="M1420 1548 c-34 -26 -43 -40 -45 -68 -7 -84 -16 -147 -35 -236 -11
-52 -19 -98 -18 -102 1 -4 -5 -38 -15 -77 -9 -38 -18 -90 -21 -115 -4 -46 -33
-154 -67 -248 -10 -30 -19 -62 -19 -72 0 -31 -42 -70 -78 -72 -36 -3 -55 -17
-44 -35 9 -15 30 -18 72 -10 19 4 47 9 63 11 15 3 35 7 45 10 9 2 38 7 65 11
84 10 124 35 78 50 -16 5 -38 3 -94 -8 -16 -3 -16 57 0 127 7 33 16 79 18 103
2 24 7 48 9 52 3 4 8 36 11 72 3 35 8 75 11 89 3 14 8 41 10 60 6 46 12 96 20
145 l6 39 19 -23 c11 -13 19 -29 19 -36 0 -18 48 -175 61 -197 5 -10 9 -23 9
-30 0 -7 13 -47 29 -88 17 -42 32 -87 34 -100 2 -14 9 -38 15 -53 7 -15 14
-42 18 -60 3 -18 12 -45 20 -61 7 -16 14 -35 14 -43 0 -14 2 -14 48 -16 48 -1
60 10 77 70 35 122 150 359 232 479 21 30 48 74 59 97 26 51 52 76 63 59 7
-12 7 -106 -3 -392 -9 -253 -16 -298 -49 -301 -7 -1 -21 -3 -32 -4 -11 -1 -28
-3 -38 -3 -13 -2 -17 -9 -15 -24 2 -19 9 -23 33 -20 17 1 57 3 89 3 38 1 72 8
96 20 20 11 60 21 88 22 60 4 74 13 48 32 -13 10 -25 11 -43 4 -29 -11 -63 4
-64 29 -2 52 2 196 7 203 2 5 7 74 9 154 2 80 7 150 10 155 3 5 7 57 10 117 3
59 8 128 12 153 13 86 10 124 -10 128 -39 8 -64 -7 -83 -50 -10 -24 -24 -47
-31 -53 -16 -13 -80 -102 -118 -161 -16 -26 -38 -59 -47 -73 -10 -14 -22 -36
-28 -49 -5 -13 -21 -38 -34 -55 -13 -18 -31 -48 -40 -68 -9 -20 -25 -45 -35
-55 -9 -11 -20 -26 -24 -34 -21 -46 -84 -135 -96 -135 -7 0 -21 25 -30 55 -20
61 -48 143 -92 265 -15 44 -28 89 -29 100 0 11 -7 28 -15 38 -7 11 -17 37 -20
59 -4 23 -14 57 -23 77 -8 20 -18 65 -21 100 -3 36 -11 66 -17 68 -6 2 -31
-11 -54 -29z"/>
</g>
</svg>
